<?xml version="1.0" encoding="UTF-8" standalone="no"?>
        <svg 
    viewBox="3.0029296875 -86.6455078125 448.0224609375 57.4951171875"
    width="445.01953125"
    height="144.140625"
   xmlns="http://www.w3.org/2000/svg"
   xmlns:svg="http://www.w3.org/2000/svg">
   <path d="M28.05-90.01L28.05-128.10L54.57-125.54Q54.35-123.85 53.28-122.75Q52.22-121.66 49.07-121.22L49.07-121.22L49.07-90.89L57.42-102.91Q57.42-102.91 59.73-100.85Q62.04-98.80 65.30-95.84Q68.55-92.87 71.41-90.01L71.41-90.01L90.89-90.01L90.89-127.81L117.48-125.24Q117.26-123.71 116.16-122.53Q115.06-121.36 111.91-120.92L111.91-120.92L111.91-90.01L119.68-90.01L129.27-103.34Q129.27-103.34 131.03-101.88Q132.79-100.42 135.50-98.07Q138.21-95.73 141.14-93.13Q144.07-90.53 146.41-88.18L146.41-88.18Q145.75-85.77 142.24-85.77L142.24-85.77L115.21-85.77Q119.90-69.95 128.94-58.19Q137.99-46.44 148.83-40.80L148.83-40.80L148.83-38.96Q141.72-33.62 138.21-26.66Q134.69-19.70 133.67-10.99L133.67-10.99Q127.15-19.12 122.94-31.16Q118.73-43.21 116.24-57.31Q113.75-71.41 112.35-85.77L112.35-85.77L111.91-85.77L111.91 6.59Q111.91 7.62 109.28 9.38Q106.64 11.13 102.76 12.52Q98.88 13.92 94.92 13.92L94.92 13.92L90.89 13.92L90.89-43.80Q77.05-23.80 54.79-9.74L54.79-9.74L53.10-11.28Q61.96-20.80 68.63-32.96Q75.29-45.12 79.87-58.63Q84.45-72.14 87.01-85.77L87.01-85.77L71.41-85.77L71.26-86.28Q70.39-85.77 69.14-85.77L69.14-85.77L49.07-85.77L49.07-77.86Q59.03-74.63 64.38-70.31Q69.73-65.99 71.37-61.49Q73.02-56.98 71.89-53.17Q70.75-49.37 67.79-47.20Q64.82-45.04 60.90-45.41Q56.98-45.78 53.10-49.66L53.10-49.66Q53.54-55.74 52.29-61.96Q51.05-68.19 49.07-73.54L49.07-73.54L49.07 8.28Q49.07 9.08 46.51 10.47Q43.95 11.87 40.10 13.00Q36.25 14.14 32.23 14.14L32.23 14.14L28.05 14.14L28.05-43.07Q23.22-36.84 17.36-31.27Q11.50-25.71 4.61-20.87L4.61-20.87L3.00-22.34Q9.16-30.69 13.81-41.05Q18.46-51.42 21.68-62.88Q24.90-74.34 26.88-85.77L26.88-85.77L6.59-85.77L5.42-90.01L28.05-90.01ZM177.61-99.46L177.61-99.46L199.95-88.04Q199.37-86.94 198.16-86.28Q196.95-85.62 194.24-85.99L194.24-85.99Q188.16-78.44 178.64-71.30Q169.12-64.16 157.62-59.84L157.62-59.84L156.45-61.38Q161.43-66.43 165.60-73.13Q169.78-79.83 172.85-86.76Q175.93-93.68 177.61-99.46ZM255.32-93.31L256.35-94.19Q269.68-94.12 277.88-91.19Q286.08-88.26 290.04-83.90Q293.99-79.54 294.47-75.04Q294.95-70.53 292.75-67.09Q290.55-63.65 286.41-62.59Q282.28-61.52 277.08-64.23L277.08-64.23Q275.10-69.51 271.62-74.93Q268.14-80.35 263.85-85.11Q259.57-89.87 255.32-93.31L255.32-93.31ZM157.47-104.52L156.30-108.76L214.38-108.76L214.38-128.39L241.48-126.42Q241.26-124.88 240.27-123.78Q239.28-122.68 236.13-122.24L236.13-122.24L236.13-108.76L265.36-108.76L275.54-121.36Q275.54-121.36 277.40-119.97Q279.27-118.58 282.20-116.38Q285.13-114.18 288.35-111.69Q291.58-109.20 294.29-106.93L294.29-106.93Q293.63-104.52 289.97-104.52L289.97-104.52L252.91-104.52L252.91-73.17Q252.91-66.65 251.33-61.89Q249.76-57.13 244.74-54.27Q239.72-51.42 229.32-50.68L229.32-50.68Q229.25-55.22 228.81-58.56Q228.37-61.89 227.12-64.01L227.12-64.01Q225.88-65.99 223.75-67.57Q221.63-69.14 216.87-70.02L216.87-70.02L216.87-71.70Q213.79-65.63 207.35-59.88Q200.90-54.13 189.70-49.29Q178.49-44.46 161.13-41.09L161.13-41.09L160.33-42.63Q173.51-47.75 181.57-53.69Q189.62-59.62 193.84-65.92Q198.05-72.22 199.51-78.66Q200.98-85.11 200.98-91.33L200.98-91.33L200.98-104.52L157.47-104.52ZM232.32-73.54L232.32-104.52L221.26-104.52L221.26-91.48Q221.26-87.01 220.46-81.96Q219.65-76.90 217.02-71.85L217.02-71.85L229.83-71.26Q231.37-71.26 231.85-71.89Q232.32-72.51 232.32-73.54L232.32-73.54ZM209.25-51.93L209.25-51.93L237.60-49.95Q237.38-48.34 236.17-47.20Q234.96-46.07 232.32-45.78L232.32-45.78Q231.88-42.11 231.41-38.75Q230.93-35.38 230.27-32.23L230.27-32.23L264.77-32.23L275.54-46.22Q275.54-46.22 277.51-44.68Q279.49-43.14 282.53-40.72Q285.57-38.31 288.94-35.60Q292.31-32.89 295.02-30.47L295.02-30.47Q294.36-28.05 290.70-28.05L290.70-28.05L233.42-28.05Q239.65-20.43 249.54-16.22Q259.42-12.01 271.44-10.22Q283.45-8.42 295.97-7.98L295.97-7.98L295.97-6.30Q289.75-4.17 285.94 1.10Q282.13 6.37 280.66 14.28L280.66 14.28Q268.21 10.77 258.40 5.75Q248.58 0.73 241.48-7.36Q234.38-15.45 229.98-28.05L229.98-28.05L229.17-28.05Q227.05-20.65 222.62-14.32Q218.19-7.98 209.95-2.67Q201.71 2.64 188.27 6.92Q174.83 11.21 154.61 14.43L154.61 14.43L153.74 12.16Q171.31 6.37 181.97 0.15Q192.63-6.08 198.23-13.04Q203.83-20.00 206.25-28.05L206.25-28.05L156.88-28.05L155.71-32.23L207.28-32.23Q208.23-36.77 208.63-41.67Q209.03-46.58 209.25-51.93ZM342.11-85.18L340.94-89.43L404.37-89.43L414.92-102.91Q414.92-102.91 416.82-101.44Q418.73-99.98 421.73-97.63Q424.73-95.29 427.99-92.61Q431.25-89.94 433.96-87.60L433.96-87.60Q433.30-85.18 429.79-85.18L429.79-85.18L342.11-85.18ZM318.60-79.83L318.60-115.21L318.60-125.10L343.07-115.21L411.18-115.21L422.39-129.57Q422.39-129.57 424.48-128.03Q426.56-126.49 429.75-124.00Q432.93-121.51 436.45-118.69Q439.97-115.87 442.82-113.38L442.82-113.38Q442.16-111.04 438.43-111.04L438.43-111.04L339.92-111.04L339.92-79.83Q339.92-75.95 339.88-71.81Q339.84-67.68 339.62-63.28L339.62-63.28L415.36-63.28L426.12-76.68Q426.12-76.68 428.14-75.22Q430.15-73.75 433.23-71.45Q436.30-69.14 439.71-66.50Q443.12-63.87 445.97-61.52L445.97-61.52Q445.31-59.11 441.58-59.11L441.58-59.11L383.13-59.11Q385.55-50.90 389.17-44.42Q392.80-37.94 397.49-32.89L397.49-32.89Q402.69-39.48 407.70-46.73Q412.72-53.98 415.50-58.96L415.50-58.96L438.43-41.97Q437.92-41.02 436.52-40.47Q435.13-39.92 432.42-40.50L432.42-40.50Q426.27-37.72 418.40-34.39Q410.52-31.05 402.47-28.05L402.47-28.05Q411.55-20.07 423.27-15.38Q434.99-10.69 448.02-7.62L448.02-7.62L447.88-5.86Q434.25-2.86 429.57 12.89L429.57 12.89Q418.95 7.84 410.63 1.43Q402.32-4.98 396.17-14.14L396.17-14.14Q388.04-9.38 376.06-3.37Q364.09 2.64 346.66 10.47L346.66 10.47Q345.48 13.48 342.77 14.28L342.77 14.28L329.08-7.18L347.97-9.89L347.97-59.11L339.33-59.11Q338.60-49.66 336.73-39.73Q334.86-29.81 331.05-20.14Q327.25-10.47 320.84-1.61Q314.43 7.25 304.61 14.58L304.61 14.58L303.44 13.62Q310.55-0.44 313.77-16.44Q316.99-32.45 317.80-48.71Q318.60-64.97 318.60-79.83L318.60-79.83ZM380.86-59.11L368.99-59.11L368.99-13.18L394.04-17.43Q389.43-25.27 386.10-35.49Q382.76-45.70 380.86-59.11L380.86-59.11Z"/>
    </svg>
        