<svg width="185" height="185" version="1.1" xmlns="http://www.w3.org/2000/svg" xmlns:xlink="http://www.w3.org/1999/xlink"><path d="M164.28 120.04L165.94 121.71L165.02 122.63Q139.68 124.48 133.38 120.60L133.38 120.60Q119.14 101.73 107.86 82.30L107.86 82.30L107.30 152.23Q107.30 157.23 101.94 162.41L101.94 162.41Q99.16 162.41 97.31 157.41L97.31 157.41Q96.20 154.64 95.64 153.71L95.64 153.71Q94.16 147.24 96.57 134.84L96.57 134.84Q97.50 130.59 97.86 128.00L97.86 128.00Q99.72 113.38 99.72 83.60L99.72 83.60Q85.47 109.68 61.79 127.26L61.79 127.26Q60.13 127.26 59.94 125.96L59.94 125.96Q63.27 120.97 78.44 101.36L78.44 101.36Q92.69 83.23 97.68 69.91L97.68 69.91L84.55 71.39Q79.00 71.20 74.92 66.76L74.92 66.76L76.59 65.28L99.90 61.40L100.45 60.66Q99.90 55.66 100.27 40.49L100.27 40.49Q100.27 27.36 95.46 20.14L95.46 20.14Q93.24 17.00 93.24 14.59L93.24 14.59Q96.94 10.71 106.56 17.18L106.56 17.18Q110.63 19.96 112.11 22.18L112.11 22.18Q112.48 22.73 112.48 24.21L112.48 24.21Q112.48 24.95 110.81 29.39L110.81 29.39L110.44 30.50Q108.22 39.20 108.22 58.25L108.22 58.25Q111 57.88 121.55 54.18L121.55 54.18Q132.65 50.30 138.75 54.55L138.75 54.55Q139.49 55.11 140.23 55.85L140.23 55.85Q140.41 56.96 140.04 57.70L140.04 57.70Q139.68 58.62 138.94 58.81L138.94 58.81L108.22 67.13Q107.86 68.43 107.86 74.72L107.86 74.72Q124.88 93.03 125.98 94.14L125.98 94.14Q136.90 105.06 147.07 110.61L147.07 110.61L164.28 120.04ZM70.11 65.28L70.11 65.28Q69.93 68.24 50.69 72.50L50.69 72.50Q49.95 74.53 50.13 85.45L50.13 85.45L59.94 88.41Q65.30 90.63 65.86 94.33L65.86 94.33Q66.42 98.58 64.56 98.95L64.56 98.95L61.42 98.95L61.23 98.95Q56.98 96.55 50.13 90.07L50.13 90.07Q49.21 105.61 48.28 148.53L48.28 148.53Q45.88 154.08 43.84 155.56L43.84 155.56Q41.81 155.56 40.52 153.71L40.52 153.71Q35.34 146.13 38.11 134.10L38.11 134.10L40.33 123.74Q41.81 116.16 42.18 93.77L42.18 93.77Q42.18 90.81 42.18 88.59L42.18 88.59Q33.30 107.09 11.29 128.92L11.29 128.92Q7.21 132.99 4.25 132.99L4.25 132.99L4.25 130.96Q28.49 99.51 38.11 78.23L38.11 78.23Q39.03 76.57 39.59 74.90L39.59 74.90L25.34 77.12Q16.09 78.05 10.54 73.98L10.54 73.98Q10.54 72.31 13.13 71.94L13.13 71.94L39.22 67.32Q41.07 66.95 42.73 66.58L42.73 66.58L43.10 44.56Q42.55 31.24 37.55 23.84L37.55 23.84L37.37 21.07Q41.26 17.74 47.36 22.55L47.36 22.55Q51.80 25.88 52.91 26.43L52.91 26.43Q54.95 28.65 55.13 30.50L55.13 30.50Q51.06 49.00 50.69 59.55L50.69 59.55Q50.69 61.58 50.69 63.80L50.69 63.80L61.05 61.77Q66.97 61.21 70.11 65.28Z" stroke="#000" fill="black" /></svg>