<svg width="185" height="185" version="1.1" xmlns="http://www.w3.org/2000/svg" xmlns:xlink="http://www.w3.org/1999/xlink"><path d="M83.62 31.27L83.62 31.27Q80.66 29.05 71.04 18.87L71.04 18.87Q69.56 17.39 68.27 16.28L68.27 16.28Q68.27 13.32 68.64 12.58L68.64 12.58Q78.44 12.58 87.32 18.69L87.32 18.69Q90.83 23.50 89.54 28.49L89.54 28.49L88.98 30.34Q86.95 31.64 83.62 31.27ZM130.61 82.51L130.61 82.51Q130.24 83.99 127.47 83.07L127.47 83.07L104.34 64.38Q103.60 63.64 103.60 60.50L103.60 60.50L119.51 64.20Q129.31 67.53 131.16 76.22L131.16 76.22Q131.91 80.11 130.61 82.51ZM138.38 43.11L138.38 43.11L136.72 44.22L92.87 45.14L92.50 45.51L96.57 48.84Q97.31 49.77 97.31 50.69L97.31 50.69Q95.09 56.80 95.64 71.78Q96.20 86.77 92.50 93.24L92.50 93.24Q91.76 94.17 91.02 95.28L91.02 95.28L88.06 95.46Q83.44 89.54 74 80.85L74 80.85L74 80.29L85.66 80.29L87.69 78.07L88.61 60.50Q88.43 51.25 84.55 45.70L84.55 45.70Q73.63 46.62 66.05 48.29L66.05 48.29Q70.48 51.06 71.41 52.36L71.41 52.36Q71.41 53.65 69.38 60.68L69.38 60.68Q64.75 79.55 59.38 86.40L59.38 86.40Q54.02 93.61 46.06 94.35L46.06 94.35Q44.21 94.35 43.66 93.80L43.66 93.80Q60.87 80.29 60.87 59.39L60.87 59.39Q60.87 49.58 57.91 49.03L57.91 49.03Q55.50 48.66 44.95 51.43L44.95 51.43Q32.74 54.58 29.04 49.58L29.04 49.58Q28.12 48.66 27.57 47.18L27.57 47.18Q27.57 46.07 28.68 46.07L28.68 46.07Q82.14 39.78 88.80 38.85L88.80 38.85Q98.97 37.37 108.04 35.52L108.04 35.52Q119.69 33.12 120.99 33.12L120.99 33.12Q124.32 32.93 131.35 35.89L131.35 35.89Q140.60 39.78 138.38 43.11ZM33.48 87.51L33.48 87.51L30.52 87.88Q27.57 83.99 28.30 79.92L28.30 79.92Q28.30 79.37 28.49 78.81L28.49 78.81Q29.23 76.59 37.92 63.83L37.92 63.83Q39.03 62.16 39.59 61.05L39.59 61.05Q40.33 59.94 41.07 59.94L41.07 59.94Q44.21 59.94 43.29 68.27L43.29 68.27Q41.99 79.55 35.70 85.66L35.70 85.66Q34.59 86.77 33.48 87.51ZM154.66 161.50L154.66 161.50Q153.92 164.09 132.09 165.58L132.09 165.58Q129.87 165.76 128.76 165.76L128.76 165.76Q118.22 165.76 111.37 160.21L111.37 160.21L108.41 157.44Q87.32 135.79 76.03 122.84L76.03 122.84Q67.89 141.71 54.95 149.30L54.95 149.30Q41.99 157.25 26.27 158.92L26.27 158.92Q21.83 159.47 18.13 159.10L18.13 159.10Q17.57 159.10 16.84 158.36L16.84 158.36L41.07 147.81Q58.27 139.31 64.56 125.80L64.56 125.80Q66.60 121.55 67.71 116.37L67.71 116.37Q56.05 116.55 38.66 120.44L38.66 120.44L27.20 122.84Q22.57 123.21 18.87 120.81L18.87 120.81Q16.84 119.51 15.54 117.48L15.54 117.48L15.54 115.63L68.27 110.26Q69.38 105.64 67.89 100.09L67.89 100.09Q67.16 97.31 65.86 95.28L65.86 95.28Q65.86 93.61 67.16 92.87L67.16 92.87Q70.86 92.87 79.36 96.57L79.36 96.57Q80.84 97.13 81.77 97.50L81.77 97.50L82.88 98.98Q82.69 99.34 80.11 107.49L80.11 107.49Q79.92 108.04 79.92 108.41L79.92 108.41Q85.28 108.97 118.40 103.23L118.40 103.23Q122.84 102.49 125.43 102.12L125.43 102.12Q129.13 101.56 129.50 101.56L129.50 101.56Q134.13 101.56 140.97 105.27L140.97 105.27Q148.93 109.71 144.67 113.41L144.67 113.41L91.02 114.15Q84.36 114.52 78.25 114.89L78.25 114.89L77.52 117.66Q98.23 134.50 102.30 137.27L102.30 137.27Q113.41 145.41 123.58 149.48L123.58 149.48L147.81 158.18Q151.51 159.66 154.66 161.50Z" stroke="#000" fill="black" /></svg>