<svg width="185" height="185" version="1.1" xmlns="http://www.w3.org/2000/svg" xmlns:xlink="http://www.w3.org/1999/xlink"><path d="M116.73 39.96L116.73 39.96Q116.73 42.36 114.70 42.92L114.70 42.92L83.99 52.17Q79.36 53.65 73.63 51.98L73.63 51.98L69.56 50.32L68.64 49.58Q68.64 48.47 70.48 47.54L70.48 47.54Q70.86 47.36 71.04 47.17L71.04 47.17Q85.10 44.58 95.09 40.51L95.09 40.51Q105.64 36.26 109.52 36.26L109.52 36.26Q114.33 36.44 116.73 39.96ZM165.76 135.05L165.76 135.05L165.20 137.08L141.53 140.04Q140.23 140.23 138.94 140.23L138.94 140.23Q130.43 140.23 126.54 138.01L126.54 138.01Q118.22 132.83 93.42 100.64L93.42 100.64Q87.88 93.42 86.03 91.20L86.03 91.20Q78.25 81.21 72.15 76.59L72.15 76.59Q70.67 76.59 66.60 78.25L66.60 78.25Q70.67 80.47 70.67 85.10L70.67 85.10Q70.67 86.02 69.19 96.01L69.19 96.01L69.19 96.75Q66.97 111.92 66.97 131.53L66.97 131.53L68.08 132.64Q71.78 131.53 86.21 124.69L86.21 124.69Q90.65 122.65 93.98 121.54L93.98 121.54Q94.53 121.91 94.53 123.39L94.53 123.39L71.22 144.11L62.53 153.36L60.87 154.84Q59.94 155.58 57.53 155.58L57.53 155.58Q51.98 150.22 51.98 143.93L51.98 143.93Q51.98 140.78 54.02 137.82L54.02 137.82Q54.58 137.08 54.95 136.16L54.95 136.16Q60.13 127.09 60.49 103.23L60.49 103.23Q60.68 88.43 58.27 81.58L58.27 81.58Q51.80 81.21 48.28 79.18L48.28 79.18Q32.38 123.39 10.91 138.19L10.91 138.19Q8.88 139.67 7.03 140.78L7.03 140.78Q6.29 141.16 4.44 141.16L4.44 141.16L4.44 139.30Q25.71 111.18 33.67 91.94L33.67 91.94Q38.30 80.84 40.52 69.37L40.52 69.37L45.70 44.58Q46.99 36.44 46.99 29.60L46.99 29.60Q46.99 25.90 46.80 25.16L46.80 25.16L44.77 19.42Q44.59 17.39 46.44 16.47L46.44 16.47Q50.69 16.47 57.53 21.64L57.53 21.64Q58.27 22.38 58.83 22.75L58.83 22.75Q72.15 21.46 103.60 13.69L103.60 13.69Q109.15 12.39 113.03 11.47L113.03 11.47Q116.55 10.73 118.22 10.73L118.22 10.73Q124.50 10.73 127.83 14.61L127.83 14.61Q127.83 16.65 125.61 17.20L125.61 17.20Q120.06 19.05 106.75 21.83L106.75 21.83Q77.52 27.93 70.48 29.04L70.48 29.04Q68.45 29.41 63.27 28.86L63.27 28.86L61.23 28.49Q59.02 32.56 56.42 44.95L56.42 44.95Q56.42 45.51 56.24 46.06L56.24 46.06Q55.50 50.13 49.58 74.37L49.58 74.37Q49.58 74.74 49.39 75.11L49.39 75.11L51.62 75.11Q54.76 74.74 67.53 71.22L67.53 71.22Q96.57 64.01 100.64 62.90L100.64 62.90L118.58 57.53Q130.98 54.76 138.56 62.34L138.56 62.34Q138.75 64.19 137.64 65.12L137.64 65.12L136.34 65.67Q133.94 66.41 119.51 67.34L119.51 67.34Q118.03 67.34 116.92 67.52L116.92 67.52Q93.42 70.11 78.07 74.92L78.07 74.92L81.58 76.77L81.77 76.96Q82.88 77.70 88.06 83.99L88.06 83.99Q88.80 84.91 89.36 85.65L89.36 85.65Q98.79 96.75 105.64 103.04L105.64 103.04L116.73 89.54Q121.17 83.62 123.21 78.25L123.21 78.25Q122.47 72.15 128.21 74.55L128.21 74.55Q133.94 76.77 138.56 81.95L138.56 81.95Q138.94 82.32 139.12 82.69L139.12 82.69L138.94 84.91Q133.75 87.50 119.33 98.05L119.33 98.05L109.70 104.52L108.22 105.26Q120.80 117.84 134.87 123.39L134.87 123.39L159.28 131.91Q162.80 133.38 165.76 135.05Z" stroke="#000" fill="black" /></svg>